<?xml version="1.0" standalone="no"?>
<!DOCTYPE svg PUBLIC "-//W3C//DTD SVG 20010904//EN"
 "http://www.w3.org/TR/2001/REC-SVG-20010904/DTD/svg10.dtd">
<svg version="1.0" xmlns="http://www.w3.org/2000/svg"
 width="238.000000pt" height="238.000000pt" viewBox="0 0 238.000000 238.000000"
 preserveAspectRatio="xMidYMid meet">
<metadata>
Created by potrace 1.14, written by Peter Selinger 2001-2017
</metadata>
<g transform="translate(0.000000,238.000000) scale(0.100000,-0.100000)"
fill="#000000" stroke="none">
<path d="M817 2373 c-3 -4 -32 -80 -66 -168 -166 -439 -172 -453 -209 -461
-42 -9 -55 -14 -50 -19 7 -7 208 -8 215 -1 10 10 -2 16 -38 19 -29 3 -34 6
-31 28 1 13 14 53 27 89 l25 66 100 -1 c113 0 96 13 140 -109 24 -67 20 -73
-42 -74 -41 -1 -56 -7 -45 -18 8 -9 576 -8 584 0 9 9 0 14 -32 19 l-30 4 -3
296 c-2 259 0 297 13 298 8 1 20 3 25 4 6 1 17 3 26 4 8 0 13 5 10 10 -8 12
-271 9 -271 -3 0 -6 13 -11 28 -11 15 -1 32 -6 38 -12 6 -6 8 -122 7 -299 l-3
-289 -22 0 c-12 0 -25 -4 -28 -7 -4 -4 -12 -5 -18 -3 -7 2 -27 6 -45 9 -19 2
-35 6 -37 8 -4 5 -86 201 -90 218 -8 30 -157 395 -165 403 -4 5 -10 5 -13 0z
m23 -314 c22 -57 40 -105 40 -106 0 -6 -167 -3 -172 2 -3 3 13 55 36 115 22
60 45 105 49 101 4 -4 25 -54 47 -112z"/>
<path d="M204 2359 c-6 -10 -8 -10 36 -16 19 -2 37 -7 40 -9 5 -6 7 -604 2
-650 -3 -22 -12 -35 -29 -43 -23 -10 -25 -10 -18 6 26 64 0 102 -65 93 -38 -5
-58 -64 -34 -99 32 -45 138 -43 201 5 65 50 67 56 68 386 0 163 4 300 8 304 4
4 18 8 32 8 14 1 26 6 28 11 3 12 -261 16 -269 4z"/>
<path d="M1510 2362 c-23 -8 -7 -22 24 -22 19 0 38 -5 42 -11 10 -16 11 -545
1 -571 -5 -15 -14 -19 -31 -16 -26 5 -55 -7 -44 -18 6 -5 98 -8 181 -5 33 1
36 16 5 19 -68 7 -62 -16 -63 246 0 131 3 240 6 242 4 2 10 -8 15 -24 10 -35
9 -33 21 -62 37 -87 65 -156 67 -165 2 -5 7 -19 12 -30 4 -11 24 -63 44 -115
21 -56 42 -95 50 -95 8 0 29 47 55 128 23 70 39 127 37 127 -3 0 0 6 5 13 5 6
24 58 43 114 19 57 37 103 41 103 6 0 6 -467 -1 -473 -3 -3 -22 -7 -43 -10
-21 -3 -41 -8 -44 -11 -8 -8 -15 -7 132 -7 187 0 181 -1 167 13 -6 6 -27 11
-46 10 -24 -1 -35 3 -38 16 -4 14 -3 555 1 573 1 6 22 9 59 9 26 0 30 16 5 24
-10 3 -56 4 -103 4 l-86 -1 -49 -141 c-27 -78 -50 -145 -51 -151 -1 -5 -11
-32 -21 -60 -11 -27 -23 -59 -27 -70 -8 -21 -9 -20 -130 281 l-58 141 -84 -1
c-46 0 -88 -2 -94 -4z"/>
<path d="M750 1662 c0 -4 5 -23 10 -42 6 -19 12 -46 15 -60 3 -14 11 -51 20
-83 8 -32 15 -62 15 -67 0 -5 -19 -10 -42 -12 -42 -3 -43 -4 -66 -65 -22 -56
-27 -61 -50 -57 -43 8 -342 11 -422 4 -67 -5 -82 -3 -142 21 -38 15 -68 25
-68 21 0 -7 26 -37 90 -109 41 -45 193 -216 270 -303 36 -40 70 -78 75 -84 6
-6 46 -51 90 -101 43 -49 84 -95 90 -101 5 -6 33 -37 62 -70 28 -32 62 -71 75
-85 12 -14 52 -59 88 -99 36 -41 72 -81 80 -90 8 -9 30 -34 49 -55 19 -22 72
-81 118 -132 l84 -92 37 42 c20 23 39 44 42 47 3 3 36 41 75 85 38 44 81 92
95 106 14 15 50 55 80 89 30 35 62 71 70 80 8 9 40 45 70 80 30 35 62 70 70
79 9 9 47 52 85 96 39 44 75 84 81 90 5 5 44 48 85 95 86 98 126 143 154 174
11 12 46 51 77 87 31 35 77 87 102 114 25 28 41 52 35 54 -5 1 -33 -7 -62 -20
-40 -17 -66 -22 -112 -19 -86 5 -383 3 -431 -2 l-42 -5 -25 61 c-24 60 -26 61
-66 64 -47 4 -49 10 -26 85 8 26 14 49 15 52 0 3 1 7 1 10 4 13 6 23 13 55 4
19 10 44 13 54 4 16 -5 12 -44 -17 -59 -43 -141 -77 -188 -77 -45 0 -123 30
-167 64 -19 14 -38 26 -42 26 -4 0 -19 -11 -34 -25 -34 -32 -121 -65 -172 -65
-46 0 -106 25 -177 73 -29 20 -53 33 -53 29z m466 -110 c2 -39 4 -43 17 -41
36 4 47 -2 45 -26 -2 -20 -8 -25 -30 -25 -27 0 -31 -5 -31 -42 0 -11 -7 -18
-18 -18 -30 0 -34 3 -34 30 -1 21 -6 26 -32 28 -27 3 -32 7 -31 31 1 23 5 27
29 25 25 -2 29 2 30 24 1 15 1 30 1 33 -1 3 11 5 26 4 20 -1 27 -7 28 -23z
m416 -242 c15 -31 15 -36 2 -45 -50 -32 -50 -34 -9 -28 38 5 41 3 52 -28 7
-18 11 -34 9 -36 -1 -2 -19 4 -39 12 -42 17 -50 19 -43 6 3 -4 26 -14 52 -21
44 -13 45 -14 23 -25 -18 -10 -31 -10 -63 2 -47 16 -142 67 -170 92 -11 9 -17
11 -14 6 13 -22 -20 -73 -55 -86 -19 -7 -33 -17 -31 -24 8 -19 -43 -58 -81
-60 -26 -2 -35 1 -36 14 0 9 -2 26 -3 39 -2 16 2 22 13 20 27 -3 59 12 63 30
2 9 -6 30 -19 45 -19 24 -21 32 -11 50 6 12 16 25 22 29 6 4 7 10 4 14 -4 3
-16 -8 -26 -25 -19 -32 -20 -32 -26 -8 -5 23 -39 45 -63 41 -7 -1 -18 -2 -23
-3 -6 0 -17 -16 -25 -33 -12 -30 -14 -31 -21 -13 -9 24 -34 44 -54 44 -11 0
-9 -3 5 -11 26 -15 55 -52 47 -58 -4 -3 -8 -12 -10 -20 -2 -8 -10 -19 -18 -23
-8 -4 -14 -14 -14 -22 0 -20 44 -47 64 -39 13 5 16 -1 16 -30 0 -43 -16 -53
-63 -40 -22 6 -37 20 -47 41 -8 18 -22 33 -30 33 -24 1 -59 33 -63 57 -3 23
-17 44 -17 26 0 -5 -33 -30 -73 -56 -74 -47 -148 -69 -161 -48 -4 6 -1 11 7
11 18 0 67 39 50 40 -6 0 -14 -4 -17 -9 -3 -5 -19 -14 -36 -19 l-29 -11 22 45
c21 44 23 45 57 39 33 -5 34 -4 16 10 -11 8 -23 15 -28 15 -13 0 -10 20 10 62
l17 38 425 -3 425 -2 17 -35z m-407 -20 c0 -8 -10 -16 -22 -18 -20 -3 -22 2
-14 36 3 11 36 -6 36 -18z m-82 -57 c2 -10 5 -30 6 -45 1 -23 -3 -28 -24 -28
-31 0 -38 12 -20 36 8 10 15 27 15 37 0 9 4 17 9 17 5 0 12 -8 14 -17z m113 8
c-3 -5 3 -20 14 -34 17 -22 18 -26 5 -37 -24 -20 -45 -4 -45 33 0 19 3 37 7
40 10 10 25 8 19 -2z m-799 -13 c6 -7 9 -26 6 -41 l-6 -29 -73 4 c-41 3 -74 1
-74 -4 0 -4 11 -9 25 -9 14 -1 28 -2 33 -3 4 -1 22 -6 41 -10 30 -7 33 -11 27
-38 -5 -24 2 -40 37 -86 23 -31 45 -58 50 -60 4 -2 7 -10 7 -18 0 -8 4 -14 8
-14 4 0 16 -15 27 -32 10 -18 22 -35 25 -38 4 -3 19 -23 34 -44 14 -21 26 -36
26 -32 0 9 -20 46 -32 60 -5 6 -43 64 -84 128 -65 100 -74 120 -64 138 9 17
17 19 53 14 57 -9 82 -23 68 -37 -20 -20 -17 -27 72 -171 7 -11 42 -68 79
-128 38 -60 68 -111 68 -114 0 -5 7 -16 68 -106 18 -25 32 -49 32 -52 0 -3 18
-34 40 -68 22 -35 40 -55 40 -45 0 9 -4 17 -10 17 -5 0 -10 4 -10 9 0 8 -52
106 -90 171 -17 29 -169 306 -209 382 -34 63 -40 82 -31 98 7 13 16 17 28 13
15 -6 15 -5 4 10 -16 19 -6 43 12 28 6 -5 23 -11 36 -13 14 -2 31 -8 39 -12
16 -11 83 -26 123 -29 14 -1 29 -5 33 -9 3 -3 19 -4 34 -2 39 6 73 -42 75
-107 2 -58 36 -100 97 -118 40 -12 40 -12 20 -30 -40 -35 -22 -81 45 -113 108
-50 145 -126 96 -194 -20 -27 -30 -29 -56 -9 -19 14 -19 15 -1 49 19 34 19 35
0 56 -11 12 -44 36 -74 54 -30 17 -62 42 -72 56 -21 29 -31 94 -17 108 6 6 8
16 6 24 -7 20 -38 -46 -38 -82 0 -36 15 -68 43 -92 19 -17 19 -17 -1 -50 -25
-42 -23 -95 6 -135 14 -19 18 -34 12 -38 -5 -3 -10 -18 -10 -33 0 -35 45 -128
54 -113 4 6 12 9 17 5 6 -4 6 -11 -2 -20 -6 -8 -9 -28 -7 -45 4 -27 3 -29 -7
-16 -17 24 -28 21 -13 -3 7 -11 25 -24 40 -31 22 -9 25 -15 18 -33 -4 -13 -4
-29 0 -37 12 -18 17 -10 22 31 2 22 10 39 22 45 10 6 25 21 34 35 l14 25 -22
-25 -23 -25 7 32 c6 28 3 34 -28 60 -20 15 -40 29 -46 29 -5 1 -14 2 -18 3
-14 2 -42 58 -42 83 0 33 7 38 38 27 22 -8 27 -16 28 -46 0 -26 7 -41 25 -54
47 -36 69 -60 64 -70 -4 -5 -1 -9 5 -9 7 0 10 6 7 12 -3 7 -8 21 -12 30 -4 10
-3 18 2 18 11 0 33 43 39 76 2 11 -2 29 -10 39 -12 16 -10 22 10 44 13 14 25
35 26 46 4 46 -2 78 -17 94 -21 24 -19 32 13 63 18 18 29 39 30 61 3 42 -14
91 -28 82 -6 -4 -7 -12 -1 -22 13 -23 -4 -83 -32 -111 l-25 -24 -46 27 c-42
25 -46 30 -46 65 0 36 14 60 27 46 4 -3 6 -24 5 -45 -2 -44 11 -60 32 -39 47
47 20 93 -76 129 -66 24 -128 78 -128 109 0 24 18 61 34 72 21 14 76 9 83 -8
8 -22 -15 -34 -55 -28 -32 5 -33 4 -27 -18 8 -25 45 -59 57 -52 3 2 9 0 13 -6
3 -5 14 -10 23 -10 9 0 48 -16 87 -34 38 -19 72 -33 74 -30 2 2 -2 4 -9 4 -9
0 -7 7 7 23 32 35 45 66 42 101 -2 22 4 42 19 61 12 15 22 31 22 35 0 4 12 8
28 8 37 0 102 11 116 19 6 4 20 9 31 10 11 2 29 7 40 12 72 30 122 34 96 8
-15 -15 -14 -27 2 -21 8 3 18 -6 25 -21 10 -22 7 -34 -30 -102 -22 -43 -44
-82 -48 -88 -4 -5 -23 -40 -44 -77 -86 -161 -111 -205 -133 -240 -13 -21 -23
-41 -23 -44 0 -4 -13 -29 -30 -56 -16 -26 -30 -54 -30 -60 0 -10 35 41 87 127
6 11 79 129 162 262 136 220 149 246 141 272 -8 28 -6 30 21 35 16 3 42 9 58
12 23 4 32 1 41 -16 6 -11 8 -26 4 -33 -4 -6 -47 -72 -96 -145 -48 -72 -84
-132 -80 -132 4 1 52 62 107 138 82 112 100 143 98 169 -2 32 -1 32 58 44 75
15 67 25 -15 21 -61 -4 -64 -3 -70 23 -13 50 5 57 131 52 63 -2 115 -6 118 -8
2 -2 -17 -29 -42 -59 -48 -59 -49 -61 -137 -165 -74 -89 -66 -80 -231 -280
-77 -93 -142 -172 -145 -175 -3 -3 -24 -27 -45 -55 -22 -27 -42 -52 -45 -55
-6 -5 -85 -100 -151 -181 -20 -24 -52 -62 -70 -85 -19 -22 -49 -59 -68 -82
-18 -23 -37 -42 -42 -42 -4 0 -36 35 -71 77 -34 43 -73 89 -84 103 -20 23
-100 119 -179 215 -38 47 -249 301 -273 330 -19 23 -98 119 -123 150 -9 11
-44 52 -78 92 -33 40 -61 75 -61 79 0 3 -12 15 -26 26 -14 12 -23 27 -20 35 3
8 2 12 -3 8 -5 -3 -21 9 -35 27 -25 33 -25 33 -5 38 12 3 65 7 119 8 70 2 100
-1 107 -10z m193 -3 c0 -8 -7 -29 -16 -47 -15 -33 -16 -33 -75 -30 -32 2 -59
6 -59 9 0 15 36 63 54 71 35 15 96 14 96 -3z m1177 -1 c18 -9 36 -27 41 -44
l10 -28 -60 -4 -59 -3 -18 40 c-10 22 -17 43 -15 46 7 12 69 7 101 -7z m-611
-12 c-3 -5 -6 -74 -7 -156 -2 -81 -6 -149 -10 -152 -4 -2 -13 2 -21 9 -7 8
-18 12 -24 10 -6 -2 -22 6 -35 18 l-24 21 29 -17 c20 -12 31 -14 39 -6 8 8 5
11 -10 11 -27 0 -38 16 -18 24 8 3 15 1 15 -4 0 -6 4 -10 8 -10 4 0 6 57 4
128 l-3 127 31 2 c17 1 29 -1 26 -5z m306 -37 c29 -19 61 -38 71 -41 9 -3 15
-10 11 -15 -16 -26 -154 40 -154 74 0 24 11 22 72 -18z m-592 7 c0 -16 -71
-70 -111 -84 -20 -8 -50 11 -32 19 7 2 39 22 70 44 65 44 73 46 73 21z m550
-42 c19 -17 40 -30 48 -30 7 0 10 -4 7 -10 -11 -17 -38 -11 -82 18 -33 22 -40
31 -31 40 16 16 18 16 58 -18z m-530 -15 c-18 -22 -64 -45 -91 -45 -16 0 -9 9
32 40 34 25 57 36 63 30 6 -6 4 -15 -4 -25z m60 -2 c0 -12 -56 -53 -72 -53
-25 0 -23 5 13 39 26 25 59 33 59 14z m423 -8 c32 -28 34 -35 9 -35 -19 0 -72
39 -72 53 0 15 36 5 63 -18z m-328 -60 c22 -2 41 -7 42 -12 2 -5 -13 -7 -32
-5 -21 3 -44 -2 -59 -11 -22 -15 -25 -14 -45 7 -25 27 -26 34 -5 57 15 17 17
16 38 -8 16 -18 34 -27 61 -28z m273 43 c19 -19 14 -42 -12 -67 -23 -22 -26
-22 -48 -7 -12 9 -40 16 -61 16 -21 0 -36 4 -33 9 3 4 22 7 42 6 28 -1 42 5
63 26 30 32 33 33 49 17z m-54 -89 c37 -29 35 -70 -5 -109 -34 -32 -49 -36
-80 -19 -22 11 -17 29 9 29 24 1 59 31 67 59 7 22 5 23 -20 17 -30 -8 -80 18
-70 34 11 17 72 11 99 -11z m-54 -62 c12 -4 11 -6 -2 -6 -10 -1 -18 -5 -18
-11 0 -5 -8 -10 -17 -10 -15 0 -14 2 3 16 14 12 15 14 3 11 -12 -4 -16 1 -16
21 0 26 0 26 16 6 9 -12 23 -23 31 -27z m-34 -213 c-8 -20 -25 -18 -21 4 2 9
4 24 5 32 0 12 3 11 11 -3 6 -10 8 -25 5 -33z m-76 4 l-1 -33 -13 25 c-14 25
-13 40 5 40 5 0 9 -15 9 -32z m-21 -120 c16 -9 17 -16 8 -35 -14 -32 3 -62 59
-97 24 -15 51 -37 58 -48 28 -39 -10 -129 -48 -115 -12 5 -13 13 -6 38 8 28 6
37 -12 56 -12 12 -30 25 -41 29 -27 8 -77 61 -78 82 -5 58 9 102 32 102 5 0
18 -5 28 -12z m56 -73 c1 -22 -2 -34 -9 -32 -6 2 -11 9 -11 15 0 5 -3 13 -7
17 -4 4 -2 15 5 26 15 23 20 17 22 -26z m-2 -175 c3 -11 1 -20 -4 -20 -5 0 -9
9 -9 20 0 11 2 20 4 20 2 0 6 -9 9 -20z m-7 -140 c0 -43 -11 -53 -21 -20 -5
16 8 60 18 60 2 0 3 -18 3 -40z m30 -4 c0 -14 -3 -23 -7 -20 -6 3 -6 22 0 42
3 10 7 -2 7 -22z"/>
<path d="M1010 1324 c-65 -21 -100 -37 -100 -45 0 -5 17 0 38 11 21 11 50 21
64 22 15 1 24 6 22 10 -3 4 -6 8 -7 7 -1 0 -9 -3 -17 -5z"/>
<path d="M1336 1318 c3 -4 11 -5 19 -1 21 7 19 12 -4 10 -11 0 -18 -5 -15 -9z"/>
<path d="M1380 1318 c0 -6 3 -9 6 -5 8 8 61 -20 139 -72 32 -22 61 -38 64 -36
6 6 10 3 -98 68 -99 60 -111 65 -111 45z"/>
<path d="M845 1238 c-16 -12 -32 -25 -35 -28 -3 -4 -13 -9 -22 -13 -10 -3 -18
-11 -18 -17 0 -11 81 43 102 67 15 18 8 16 -27 -9z"/>
<path d="M2078 1163 c7 -3 16 -2 19 1 4 3 -2 6 -13 5 -11 0 -14 -3 -6 -6z"/>
<path d="M1538 1062 c-15 -3 -58 -116 -58 -154 0 -8 -3 -18 -7 -22 -4 -3 -8
-17 -10 -29 -2 -12 -17 -71 -34 -132 -17 -60 -33 -121 -35 -135 -3 -14 -9 -36
-13 -50 -5 -14 -12 -37 -15 -52 -3 -14 -9 -34 -13 -44 -4 -11 -3 -15 4 -11 6
4 14 23 18 43 3 20 10 44 15 53 17 32 171 512 168 524 -2 7 -11 11 -20 9z"/>
<path d="M810 1045 c0 -6 39 -121 105 -310 31 -88 58 -164 59 -170 2 -5 5 -17
8 -25 3 -8 13 -40 23 -70 10 -30 22 -59 27 -65 4 -5 -1 17 -12 50 -11 33 -20
60 -20 60 3 0 -17 76 -67 255 -31 107 -56 199 -57 205 -1 5 -5 16 -9 23 -5 6
-6 12 -2 12 3 0 1 9 -5 20 -9 17 -50 29 -50 15z"/>
<path d="M660 763 c0 -6 8 -17 18 -24 16 -13 16 -13 2 6 -8 11 -16 22 -17 24
-2 2 -3 0 -3 -6z"/>
<path d="M1710 759 c0 -5 5 -7 10 -4 6 3 10 8 10 11 0 2 -4 4 -10 4 -5 0 -10
-5 -10 -11z"/>
<path d="M1372 365 c-6 -14 -10 -25 -8 -25 2 0 11 11 20 25 9 14 13 25 8 25
-5 0 -14 -11 -20 -25z"/>
<path d="M995 360 c3 -5 8 -10 11 -10 2 0 4 5 4 10 0 6 -5 10 -11 10 -5 0 -7
-4 -4 -10z"/>
<path d="M1016 327 c3 -10 9 -15 12 -12 3 3 0 11 -7 18 -10 9 -11 8 -5 -6z"/>
<path d="M1111 254 c0 -11 3 -14 6 -6 3 7 2 16 -1 19 -3 4 -6 -2 -5 -13z"/>
<path d="M1268 1013 c7 -3 16 -2 19 1 4 3 -2 6 -13 5 -11 0 -14 -3 -6 -6z"/>
</g>
</svg>
