<svg xmlns="http://www.w3.org/2000/svg" width="147.138" height="3" viewBox="0 0 147.138 3"><defs><style>.a{fill:#707070;}</style></defs><path class="a" d="M144.137,1.5h-.005a1.5,1.5,0,0,1-1.5-1.5,1.5,1.5,0,0,1,1.5-1.5h.005a1.5,1.5,0,0,1,1.5,1.5A1.5,1.5,0,0,1,144.137,1.5Zm-6.005,0h-.006a1.5,1.5,0,0,1-1.5-1.5,1.5,1.5,0,0,1,1.5-1.5h.006a1.5,1.5,0,0,1,1.5,1.5A1.5,1.5,0,0,1,138.132,1.5Zm-6.006,0h-.005a1.5,1.5,0,0,1-1.5-1.5,1.5,1.5,0,0,1,1.5-1.5h.005a1.5,1.5,0,0,1,1.5,1.5A1.5,1.5,0,0,1,132.126,1.5Zm-6.005,0h-.006a1.5,1.5,0,0,1-1.5-1.5,1.5,1.5,0,0,1,1.5-1.5h.006a1.5,1.5,0,0,1,1.5,1.5A1.5,1.5,0,0,1,126.121,1.5Zm-6.006,0h-.006a1.5,1.5,0,0,1-1.5-1.5,1.5,1.5,0,0,1,1.5-1.5h.006a1.5,1.5,0,0,1,1.5,1.5A1.5,1.5,0,0,1,120.116,1.5Zm-6.006,0H114.1A1.5,1.5,0,0,1,112.6,0a1.5,1.5,0,0,1,1.5-1.5h.006a1.5,1.5,0,0,1,1.5,1.5A1.5,1.5,0,0,1,114.11,1.5Zm-6.006,0H108.1A1.5,1.5,0,0,1,106.6,0a1.5,1.5,0,0,1,1.5-1.5h.006A1.5,1.5,0,0,1,109.6,0,1.5,1.5,0,0,1,108.1,1.5Zm-6.006,0h-.006a1.5,1.5,0,0,1-1.5-1.5,1.5,1.5,0,0,1,1.5-1.5h.006A1.5,1.5,0,0,1,103.6,0,1.5,1.5,0,0,1,102.1,1.5Zm-6.006,0h-.006a1.5,1.5,0,0,1-1.5-1.5,1.5,1.5,0,0,1,1.5-1.5h.006a1.5,1.5,0,0,1,1.5,1.5A1.5,1.5,0,0,1,96.093,1.5Zm-6.006,0h-.006a1.5,1.5,0,0,1-1.5-1.5,1.5,1.5,0,0,1,1.5-1.5h.006a1.5,1.5,0,0,1,1.5,1.5A1.5,1.5,0,0,1,90.088,1.5Zm-6.006,0h-.006a1.5,1.5,0,0,1-1.5-1.5,1.5,1.5,0,0,1,1.5-1.5h.006a1.5,1.5,0,0,1,1.5,1.5A1.5,1.5,0,0,1,84.082,1.5Zm-6.006,0h-.006a1.5,1.5,0,0,1-1.5-1.5,1.5,1.5,0,0,1,1.5-1.5h.006a1.5,1.5,0,0,1,1.5,1.5A1.5,1.5,0,0,1,78.077,1.5Zm-6.006,0h-.005a1.5,1.5,0,0,1-1.5-1.5,1.5,1.5,0,0,1,1.5-1.5h.005a1.5,1.5,0,0,1,1.5,1.5A1.5,1.5,0,0,1,72.071,1.5Zm-6.005,0h-.006a1.5,1.5,0,0,1-1.5-1.5,1.5,1.5,0,0,1,1.5-1.5h.006a1.5,1.5,0,0,1,1.5,1.5A1.5,1.5,0,0,1,66.066,1.5Zm-6.006,0h-.005a1.5,1.5,0,0,1-1.5-1.5,1.5,1.5,0,0,1,1.5-1.5h.005A1.5,1.5,0,0,1,61.56,0,1.5,1.5,0,0,1,60.06,1.5Zm-6.005,0h-.006a1.5,1.5,0,0,1-1.5-1.5,1.5,1.5,0,0,1,1.5-1.5h.006a1.5,1.5,0,0,1,1.5,1.5A1.5,1.5,0,0,1,54.055,1.5Zm-6.006,0h-.006a1.5,1.5,0,0,1-1.5-1.5,1.5,1.5,0,0,1,1.5-1.5h.006a1.5,1.5,0,0,1,1.5,1.5A1.5,1.5,0,0,1,48.049,1.5Zm-6.006,0h-.006a1.5,1.5,0,0,1-1.5-1.5,1.5,1.5,0,0,1,1.5-1.5h.006a1.5,1.5,0,0,1,1.5,1.5A1.5,1.5,0,0,1,42.044,1.5Zm-6.006,0h-.006a1.5,1.5,0,0,1-1.5-1.5,1.5,1.5,0,0,1,1.5-1.5h.006a1.5,1.5,0,0,1,1.5,1.5A1.5,1.5,0,0,1,36.038,1.5Zm-6.005,0h-.006a1.5,1.5,0,0,1-1.5-1.5,1.5,1.5,0,0,1,1.5-1.5h.006a1.5,1.5,0,0,1,1.5,1.5A1.5,1.5,0,0,1,30.033,1.5Zm-6.006,0h-.005a1.5,1.5,0,0,1-1.5-1.5,1.5,1.5,0,0,1,1.5-1.5h.005a1.5,1.5,0,0,1,1.5,1.5A1.5,1.5,0,0,1,24.027,1.5Zm-6.005,0h-.006a1.5,1.5,0,0,1-1.5-1.5,1.5,1.5,0,0,1,1.5-1.5h.006a1.5,1.5,0,0,1,1.5,1.5A1.5,1.5,0,0,1,18.022,1.5Zm-6.006,0h-.005a1.5,1.5,0,0,1-1.5-1.5,1.5,1.5,0,0,1,1.5-1.5h.005a1.5,1.5,0,0,1,1.5,1.5A1.5,1.5,0,0,1,12.016,1.5Zm-6.005,0H6.005A1.5,1.5,0,0,1,4.505,0a1.5,1.5,0,0,1,1.5-1.5h.006A1.5,1.5,0,0,1,7.511,0,1.5,1.5,0,0,1,6.011,1.5ZM.005,1.5H0A1.5,1.5,0,0,1-1.5,0,1.5,1.5,0,0,1,0-1.5H.005A1.5,1.5,0,0,1,1.505,0,1.5,1.5,0,0,1,.005,1.5Z" transform="translate(1.5 1.5)"/></svg>